<svg width="12" height="20" xmlns="http://www.w3.org/2000/svg" xmlns:svg="http://www.w3.org/2000/svg">
 <title/>
 <metadata id="imagebot_3">image/svg+xmlDiamonds Symbol by Merlin2525.svghttps://openclipart.orghttps://openclipart.org/user-detail/Merlin2525https://openclipart.org/user-detail/Merlin25252015-04-06Released to the Public Domain</metadata>
 <g class="layer">
  <title>Layer 1</title>
  <g id="imagebot_1">
   <title/>
   <path d="m-417.29,487.43c-19.03,2.89 -46.36,-15.18 -22.27,-31.6c20.38,-10.68 0.82,-38.5 22.38,-52.01c21.91,-29.92 45.25,-60.5 56.17,-96.4c-1.53,-17.2 -35.59,-45.67 -1.08,-51.25c28.46,3.31 18.05,-39.3 27.88,-57.76c5.92,-28.02 10.22,-56.5 9.16,-85.2c-19.82,-0.55 -40.04,1.75 -59.47,-2.96c-12.4,-16.27 28,-24.37 34.66,-39.05c13.99,-21.1 -20.47,-44.42 -5.72,-69.37c9.42,-37.76 53.01,-62.25 89.89,-48.41c38.19,9.9 66.42,55.01 48.26,92.54c-1.45,7.24 -12.79,16.63 -9,22.39c16.54,11.48 35.68,21.48 46.16,39.2c-14.83,10.75 -39.65,2.56 -58.16,7.67c-16.84,14.94 -0.21,45.47 0.66,65.96c5.25,23.42 9.89,47.04 15.9,70.23c12.66,4.94 38.65,10.66 24.39,31.16c-20.32,16.5 -10.37,42.78 1.09,61.3c14.28,28.6 38.78,50.44 53.79,78.38c5.57,12.89 -14.36,35.74 10.48,30.39c26.92,5.72 10.81,43.05 -13.38,34.23c-89.14,3.14 -178.46,4.42 -267.6,0.94l-4.19,-0.38l0,0l0,0z" fill="gold" id="imagebot_4" stroke="gold" stroke-linecap="round" stroke-linejoin="round" stroke-width="3" transform="translate(0 -1) matrix(0.0346349 0 0 0.0346349 15.8365 2.83333)"/>
  </g>
 </g>
</svg>